{
    "asset" : {
        "generator" : "Khronos glTF Blender I/O v1.6.16",
        "version" : "2.0"
    },
    "scene" : 0,
    "scenes" : [
        {
            "name" : "Scene",
            "nodes" : [
                0,
                1,
                2,
                3
            ]
        }
    ],
    "nodes" : [
        {
            "mesh" : 0,
            "name" : "YeLun",
            "rotation" : [
                0.7071068286895752,
                0,
                0,
                0.7071067094802856
            ],
            "scale" : [
                0.009999999776482582,
                0.009999999776482582,
                0.009999999776482582
            ]
        },
        {
            "mesh" : 1,
            "name" : "FengShan",
            "rotation" : [
                0.7071068286895752,
                0,
                0,
                0.7071067094802856
            ],
            "scale" : [
                0.009999999776482582,
                0.009999999776482582,
                0.009999999776482582
            ]
        },
        {
            "mesh" : 2,
            "name" : "TouMing",
            "rotation" : [
                0.7071068286895752,
                0,
                0,
                0.7071067094802856
            ],
            "scale" : [
                0.009999999776482582,
                0.009999999776482582,
                0.009999999776482582
            ]
        },
        {
            "mesh" : 3,
            "name" : "gongsuanbeng",
            "rotation" : [
                0.7071068286895752,
                0,
                0,
                0.7071067094802856
            ],
            "scale" : [
                0.009999999776482582,
                0.009999999776482582,
                0.009999999776482582
            ]
        }
    ],
    "animations" : [
        {
            "channels" : [
                {
                    "sampler" : 0,
                    "target" : {
                        "node" : 0,
                        "path" : "translation"
                    }
                },
                {
                    "sampler" : 1,
                    "target" : {
                        "node" : 0,
                        "path" : "rotation"
                    }
                },
                {
                    "sampler" : 2,
                    "target" : {
                        "node" : 0,
                        "path" : "scale"
                    }
                }
            ],
            "name" : "YeLun",
            "samplers" : [
                {
                    "input" : 16,
                    "interpolation" : "LINEAR",
                    "output" : 17
                },
                {
                    "input" : 16,
                    "interpolation" : "LINEAR",
                    "output" : 18
                },
                {
                    "input" : 16,
                    "interpolation" : "LINEAR",
                    "output" : 19
                }
            ]
        },
        {
            "channels" : [
                {
                    "sampler" : 0,
                    "target" : {
                        "node" : 1,
                        "path" : "translation"
                    }
                },
                {
                    "sampler" : 1,
                    "target" : {
                        "node" : 1,
                        "path" : "rotation"
                    }
                },
                {
                    "sampler" : 2,
                    "target" : {
                        "node" : 1,
                        "path" : "scale"
                    }
                }
            ],
            "name" : "FengShan",
            "samplers" : [
                {
                    "input" : 20,
                    "interpolation" : "LINEAR",
                    "output" : 21
                },
                {
                    "input" : 20,
                    "interpolation" : "LINEAR",
                    "output" : 22
                },
                {
                    "input" : 20,
                    "interpolation" : "LINEAR",
                    "output" : 23
                }
            ]
        }
    ],
    "materials" : [
        {
            "doubleSided" : true,
            "name" : "yelun_M",
            "normalTexture" : {
                "index" : 0,
                "scale" : 1.600000023841858
            },
            "pbrMetallicRoughness" : {
                "baseColorTexture" : {
                    "index" : 1
                },
                "metallicRoughnessTexture" : {
                    "index" : 2
                }
            }
        },
        {
            "doubleSided" : true,
            "name" : "FengShan_M",
            "normalTexture" : {
                "index" : 3,
                "scale" : 1.600000023841858
            },
            "pbrMetallicRoughness" : {
                "baseColorTexture" : {
                    "index" : 4
                },
                "metallicRoughnessTexture" : {
                    "index" : 5
                }
            }
        },
        {
            "alphaCutoff" : 0.5,
            "alphaMode" : "MASK",
            "doubleSided" : true,
            "name" : "TouMing_M",
            "pbrMetallicRoughness" : {
                "baseColorFactor" : [
                    0.6105599999427795,
                    0.7410926222801208,
                    0.7631999850273132,
                    0.4969148337841034
                ],
                "roughnessFactor" : 0.8964735269546509
            }
        },
        {
            "alphaCutoff" : 0.5,
            "alphaMode" : "MASK",
            "doubleSided" : true,
            "name" : "GongSuanBeng",
            "normalTexture" : {
                "index" : 6,
                "scale" : 1.600000023841858
            },
            "pbrMetallicRoughness" : {
                "baseColorTexture" : {
                    "index" : 7
                },
                "metallicRoughnessTexture" : {
                    "index" : 8
                }
            }
        }
    ],
    "meshes" : [
        {
            "name" : "\u7f51\u683c",
            "primitives" : [
                {
                    "attributes" : {
                        "POSITION" : 0,
                        "NORMAL" : 1,
                        "TEXCOORD_0" : 2
                    },
                    "indices" : 3,
                    "material" : 0
                }
            ]
        },
        {
            "name" : "\u7f51\u683c.001",
            "primitives" : [
                {
                    "attributes" : {
                        "POSITION" : 4,
                        "NORMAL" : 5,
                        "TEXCOORD_0" : 6
                    },
                    "indices" : 7,
                    "material" : 1
                }
            ]
        },
        {
            "name" : "\u7f51\u683c.002",
            "primitives" : [
                {
                    "attributes" : {
                        "POSITION" : 8,
                        "NORMAL" : 9,
                        "TEXCOORD_0" : 10
                    },
                    "indices" : 11,
                    "material" : 2
                }
            ]
        },
        {
            "name" : "\u7f51\u683c.003",
            "primitives" : [
                {
                    "attributes" : {
                        "POSITION" : 12,
                        "NORMAL" : 13,
                        "TEXCOORD_0" : 14
                    },
                    "indices" : 15,
                    "material" : 3
                }
            ]
        }
    ],
    "textures" : [
        {
            "sampler" : 0,
            "source" : 0
        },
        {
            "sampler" : 0,
            "source" : 1
        },
        {
            "sampler" : 0,
            "source" : 2
        },
        {
            "sampler" : 0,
            "source" : 3
        },
        {
            "sampler" : 0,
            "source" : 4
        },
        {
            "sampler" : 0,
            "source" : 5
        },
        {
            "sampler" : 0,
            "source" : 6
        },
        {
            "sampler" : 0,
            "source" : 7
        },
        {
            "sampler" : 0,
            "source" : 8
        }
    ],
    "images" : [
        {
            "mimeType" : "image/jpeg",
            "name" : "yelun_Normal",
            "uri" : "textures/yelun_Normal.jpg"
        },
        {
            "mimeType" : "image/jpeg",
            "name" : "yelun_BaseColorAO",
            "uri" : "textures/yelun_BaseColorAO.jpg"
        },
        {
            "mimeType" : "image/jpeg",
            "name" : "yelun_Metallic-yelun_Roughness",
            "uri" : "textures/yelun_Metallic-yelun_Roughness.jpg"
        },
        {
            "mimeType" : "image/jpeg",
            "name" : "FengShan_Normal",
            "uri" : "textures/FengShan_Normal.jpg"
        },
        {
            "mimeType" : "image/jpeg",
            "name" : "FengShan_Base ColorAO",
            "uri" : "textures/FengShan_Base%20ColorAO.jpg"
        },
        {
            "mimeType" : "image/jpeg",
            "name" : "FengShan_Metallic-FengShan_Roughness",
            "uri" : "textures/FengShan_Metallic-FengShan_Roughness.jpg"
        },
        {
            "mimeType" : "image/jpeg",
            "name" : "GongSuanBeng_Normal",
            "uri" : "textures/GongSuanBeng_Normal.jpg"
        },
        {
            "mimeType" : "image/png",
            "name" : "GongSuanBeng_BaseColorAO-GongSuanBeng_OP",
            "uri" : "textures/GongSuanBeng_BaseColorAO-GongSuanBeng_OP.png"
        },
        {
            "mimeType" : "image/jpeg",
            "name" : "GongSuanBeng_Metallic-GongSuanBeng_Roughness",
            "uri" : "textures/GongSuanBeng_Metallic-GongSuanBeng_Roughness.jpg"
        }
    ],
    "accessors" : [
        {
            "bufferView" : 0,
            "componentType" : 5126,
            "count" : 679,
            "max" : [
                -47.123870849609375,
                24.264686584472656,
                -4.584423065185547
            ],
            "min" : [
                -105.58386993408203,
                -9.924264907836914,
                -38.53578186035156
            ],
            "type" : "VEC3"
        },
        {
            "bufferView" : 1,
            "componentType" : 5126,
            "count" : 679,
            "type" : "VEC3"
        },
        {
            "bufferView" : 2,
            "componentType" : 5126,
            "count" : 679,
            "type" : "VEC2"
        },
        {
            "bufferView" : 3,
            "componentType" : 5123,
            "count" : 1956,
            "type" : "SCALAR"
        },
        {
            "bufferView" : 4,
            "componentType" : 5126,
            "count" : 764,
            "max" : [
                199.77354431152344,
                44.597862243652344,
                -39.02561569213867
            ],
            "min" : [
                187.00794982910156,
                -25.985107421875,
                -109.60861206054688
            ],
            "type" : "VEC3"
        },
        {
            "bufferView" : 5,
            "componentType" : 5126,
            "count" : 764,
            "type" : "VEC3"
        },
        {
            "bufferView" : 6,
            "componentType" : 5126,
            "count" : 764,
            "type" : "VEC2"
        },
        {
            "bufferView" : 7,
            "componentType" : 5123,
            "count" : 2652,
            "type" : "SCALAR"
        },
        {
            "bufferView" : 8,
            "componentType" : 5126,
            "count" : 116,
            "max" : [
                -69.81950378417969,
                30.18950843811035,
                -0.121795654296875
            ],
            "min" : [
                -85.76959991455078,
                -15.611492156982422,
                -62.3185920715332
            ],
            "type" : "VEC3"
        },
        {
            "bufferView" : 9,
            "componentType" : 5126,
            "count" : 116,
            "type" : "VEC3"
        },
        {
            "bufferView" : 10,
            "componentType" : 5126,
            "count" : 116,
            "type" : "VEC2"
        },
        {
            "bufferView" : 11,
            "componentType" : 5123,
            "count" : 312,
            "type" : "SCALAR"
        },
        {
            "bufferView" : 12,
            "componentType" : 5126,
            "count" : 19880,
            "max" : [
                215.85040283203125,
                129.610107421875,
                14.999992370605469
            ],
            "min" : [
                -184.1497039794922,
                -97.51789855957031,
                -215
            ],
            "type" : "VEC3"
        },
        {
            "bufferView" : 13,
            "componentType" : 5126,
            "count" : 19880,
            "type" : "VEC3"
        },
        {
            "bufferView" : 14,
            "componentType" : 5126,
            "count" : 19880,
            "type" : "VEC2"
        },
        {
            "bufferView" : 15,
            "componentType" : 5123,
            "count" : 48204,
            "type" : "SCALAR"
        },
        {
            "bufferView" : 16,
            "componentType" : 5126,
            "count" : 61,
            "max" : [
                2.033333333333333
            ],
            "min" : [
                0.03333333333333333
            ],
            "type" : "SCALAR"
        },
        {
            "bufferView" : 17,
            "componentType" : 5126,
            "count" : 61,
            "type" : "VEC3"
        },
        {
            "bufferView" : 18,
            "componentType" : 5126,
            "count" : 61,
            "type" : "VEC4"
        },
        {
            "bufferView" : 19,
            "componentType" : 5126,
            "count" : 61,
            "type" : "VEC3"
        },
        {
            "bufferView" : 20,
            "componentType" : 5126,
            "count" : 31,
            "max" : [
                1.0333333333333334
            ],
            "min" : [
                0.03333333333333333
            ],
            "type" : "SCALAR"
        },
        {
            "bufferView" : 21,
            "componentType" : 5126,
            "count" : 31,
            "type" : "VEC3"
        },
        {
            "bufferView" : 22,
            "componentType" : 5126,
            "count" : 31,
            "type" : "VEC4"
        },
        {
            "bufferView" : 23,
            "componentType" : 5126,
            "count" : 31,
            "type" : "VEC3"
        }
    ],
    "bufferViews" : [
        {
            "buffer" : 0,
            "byteLength" : 8148,
            "byteOffset" : 0
        },
        {
            "buffer" : 0,
            "byteLength" : 8148,
            "byteOffset" : 8148
        },
        {
            "buffer" : 0,
            "byteLength" : 5432,
            "byteOffset" : 16296
        },
        {
            "buffer" : 0,
            "byteLength" : 3912,
            "byteOffset" : 21728
        },
        {
            "buffer" : 0,
            "byteLength" : 9168,
            "byteOffset" : 25640
        },
        {
            "buffer" : 0,
            "byteLength" : 9168,
            "byteOffset" : 34808
        },
        {
            "buffer" : 0,
            "byteLength" : 6112,
            "byteOffset" : 43976
        },
        {
            "buffer" : 0,
            "byteLength" : 5304,
            "byteOffset" : 50088
        },
        {
            "buffer" : 0,
            "byteLength" : 1392,
            "byteOffset" : 55392
        },
        {
            "buffer" : 0,
            "byteLength" : 1392,
            "byteOffset" : 56784
        },
        {
            "buffer" : 0,
            "byteLength" : 928,
            "byteOffset" : 58176
        },
        {
            "buffer" : 0,
            "byteLength" : 624,
            "byteOffset" : 59104
        },
        {
            "buffer" : 0,
            "byteLength" : 238560,
            "byteOffset" : 59728
        },
        {
            "buffer" : 0,
            "byteLength" : 238560,
            "byteOffset" : 298288
        },
        {
            "buffer" : 0,
            "byteLength" : 159040,
            "byteOffset" : 536848
        },
        {
            "buffer" : 0,
            "byteLength" : 96408,
            "byteOffset" : 695888
        },
        {
            "buffer" : 0,
            "byteLength" : 244,
            "byteOffset" : 792296
        },
        {
            "buffer" : 0,
            "byteLength" : 732,
            "byteOffset" : 792540
        },
        {
            "buffer" : 0,
            "byteLength" : 976,
            "byteOffset" : 793272
        },
        {
            "buffer" : 0,
            "byteLength" : 732,
            "byteOffset" : 794248
        },
        {
            "buffer" : 0,
            "byteLength" : 124,
            "byteOffset" : 794980
        },
        {
            "buffer" : 0,
            "byteLength" : 372,
            "byteOffset" : 795104
        },
        {
            "buffer" : 0,
            "byteLength" : 496,
            "byteOffset" : 795476
        },
        {
            "buffer" : 0,
            "byteLength" : 372,
            "byteOffset" : 795972
        }
    ],
    "samplers" : [
        {
            "magFilter" : 9729,
            "minFilter" : 9987
        }
    ],
    "buffers" : [
        {
            "byteLength" : 796344,
            "uri" : "index.bin"
        }
    ]
}
