{
    "asset" : {
        "generator" : "Khronos glTF Blender I/O v1.2.75",
        "version" : "2.0"
    },
    "scene" : 0,
    "scenes" : [
        {
            "name" : "Scene",
            "nodes" : [
                0
            ]
        }
    ],
    "nodes" : [
        {
            "mesh" : 0,
            "name" : "yalie",
            "scale" : [
                0.009999999776482582,
                0.009999999776482582,
                0.009999999776482582
            ],
            "translation" : [
                -0.26946938037872314,
                1.6353912353515625,
                -0.7195770740509033
            ]
        }
    ],
    "materials" : [
        {
            "doubleSided" : true,
            "emissiveFactor" : [
                0,
                0,
                0
            ],
            "name" : "hsq_red",
            "normalTexture" : {
                "index" : 0,
                "texCoord" : 0
            },
            "pbrMetallicRoughness" : {
                "baseColorTexture" : {
                    "index" : 1,
                    "texCoord" : 0
                },
                "metallicRoughnessTexture" : {
                    "index" : 2,
                    "texCoord" : 0
                }
            }
        },
        {
            "doubleSided" : true,
            "emissiveFactor" : [
                0,
                0,
                0
            ],
            "name" : "hsq_white",
            "normalTexture" : {
                "index" : 3,
                "texCoord" : 0
            },
            "pbrMetallicRoughness" : {
                "baseColorTexture" : {
                    "index" : 4,
                    "texCoord" : 0
                },
                "metallicRoughnessTexture" : {
                    "index" : 5,
                    "texCoord" : 0
                }
            }
        },
        {
            "doubleSided" : true,
            "emissiveFactor" : [
                0,
                0,
                0
            ],
            "name" : "hsq_grey",
            "normalTexture" : {
                "index" : 6,
                "texCoord" : 0
            },
            "pbrMetallicRoughness" : {
                "baseColorTexture" : {
                    "index" : 7,
                    "texCoord" : 0
                },
                "metallicRoughnessTexture" : {
                    "index" : 8,
                    "texCoord" : 0
                }
            }
        },
        {
            "doubleSided" : true,
            "emissiveFactor" : [
                0,
                0,
                0
            ],
            "name" : "hsq_light",
            "normalTexture" : {
                "index" : 9,
                "texCoord" : 0
            },
            "pbrMetallicRoughness" : {
                "baseColorTexture" : {
                    "index" : 10,
                    "texCoord" : 0
                },
                "metallicRoughnessTexture" : {
                    "index" : 11,
                    "texCoord" : 0
                }
            }
        }
    ],
    "meshes" : [
        {
            "name" : "\u7f51\u683c",
            "primitives" : [
                {
                    "attributes" : {
                        "POSITION" : 0,
                        "NORMAL" : 1,
                        "TEXCOORD_0" : 2
                    },
                    "indices" : 3,
                    "material" : 0
                },
                {
                    "attributes" : {
                        "POSITION" : 4,
                        "NORMAL" : 5,
                        "TEXCOORD_0" : 6
                    },
                    "indices" : 7,
                    "material" : 1
                },
                {
                    "attributes" : {
                        "POSITION" : 8,
                        "NORMAL" : 9,
                        "TEXCOORD_0" : 10
                    },
                    "indices" : 11,
                    "material" : 2
                },
                {
                    "attributes" : {
                        "POSITION" : 12,
                        "NORMAL" : 13,
                        "TEXCOORD_0" : 14
                    },
                    "indices" : 15,
                    "material" : 3
                }
            ]
        }
    ],
    "textures" : [
        {
            "source" : 0
        },
        {
            "source" : 1
        },
        {
            "source" : 2
        },
        {
            "source" : 3
        },
        {
            "source" : 4
        },
        {
            "source" : 5
        },
        {
            "source" : 6
        },
        {
            "source" : 7
        },
        {
            "source" : 8
        },
        {
            "source" : 9
        },
        {
            "source" : 10
        },
        {
            "source" : 11
        }
    ],
    "images" : [
        {
            "mimeType" : "image/jpeg",
            "name" : "25_N_1",
            "uri" : "texture/25_N_1.jpg"
        },
        {
            "mimeType" : "image/jpeg",
            "name" : "25_D_1",
            "uri" : "texture/25_D_1.jpg"
        },
        {
            "mimeType" : "image/jpeg",
            "name" : "25_M_1-25_R_1",
            "uri" : "texture/25_M_1-25_R_1.jpg"
        },
        {
            "mimeType" : "image/jpeg",
            "name" : "25_N_2",
            "uri" : "texture/25_N_2.jpg"
        },
        {
            "mimeType" : "image/jpeg",
            "name" : "25_D_2",
            "uri" : "texture/25_D_2.jpg"
        },
        {
            "mimeType" : "image/jpeg",
            "name" : "25_M_2-25_R_2",
            "uri" : "texture/25_M_2-25_R_2.jpg"
        },
        {
            "mimeType" : "image/jpeg",
            "name" : "25_N",
            "uri" : "texture/25_N.jpg"
        },
        {
            "mimeType" : "image/jpeg",
            "name" : "25_D",
            "uri" : "texture/25_D.jpg"
        },
        {
            "mimeType" : "image/jpeg",
            "name" : "25_M-25_R",
            "uri" : "texture/25_M-25_R.jpg"
        },
        {
            "mimeType" : "image/jpeg",
            "name" : "25_N_0",
            "uri" : "texture/25_N_0.jpg"
        },
        {
            "mimeType" : "image/jpeg",
            "name" : "25_D_0",
            "uri" : "texture/25_D_0.jpg"
        },
        {
            "mimeType" : "image/jpeg",
            "name" : "25_M_0-25_R_0",
            "uri" : "texture/25_M_0-25_R_0.jpg"
        }
    ],
    "accessors" : [
        {
            "bufferView" : 0,
            "componentType" : 5126,
            "count" : 7464,
            "max" : [
                526.9741821289062,
                58.033180236816406,
                188.21926879882812
            ],
            "min" : [
                -280.4549560546875,
                -163.5391387939453,
                -3.6065673828125
            ],
            "type" : "VEC3"
        },
        {
            "bufferView" : 1,
            "componentType" : 5126,
            "count" : 7464,
            "type" : "VEC3"
        },
        {
            "bufferView" : 2,
            "componentType" : 5126,
            "count" : 7464,
            "type" : "VEC2"
        },
        {
            "bufferView" : 3,
            "componentType" : 5123,
            "count" : 20025,
            "type" : "SCALAR"
        },
        {
            "bufferView" : 4,
            "componentType" : 5126,
            "count" : 792,
            "max" : [
                248.96505737304688,
                -53.62055969238281,
                176.176025390625
            ],
            "min" : [
                7.04827880859375,
                -138.3553924560547,
                19.63279914855957
            ],
            "type" : "VEC3"
        },
        {
            "bufferView" : 5,
            "componentType" : 5126,
            "count" : 792,
            "type" : "VEC3"
        },
        {
            "bufferView" : 6,
            "componentType" : 5126,
            "count" : 792,
            "type" : "VEC2"
        },
        {
            "bufferView" : 7,
            "componentType" : 5123,
            "count" : 2088,
            "type" : "SCALAR"
        },
        {
            "bufferView" : 8,
            "componentType" : 5126,
            "count" : 4365,
            "max" : [
                286.852783203125,
                -9.919231414794922,
                184.09786987304688
            ],
            "min" : [
                -253.93373107910156,
                -150.5720977783203,
                -0.4378814697265625
            ],
            "type" : "VEC3"
        },
        {
            "bufferView" : 9,
            "componentType" : 5126,
            "count" : 4365,
            "type" : "VEC3"
        },
        {
            "bufferView" : 10,
            "componentType" : 5126,
            "count" : 4365,
            "type" : "VEC2"
        },
        {
            "bufferView" : 11,
            "componentType" : 5123,
            "count" : 10554,
            "type" : "SCALAR"
        },
        {
            "bufferView" : 12,
            "componentType" : 5126,
            "count" : 589,
            "max" : [
                312.74676513671875,
                75.65029907226562,
                156.69244384765625
            ],
            "min" : [
                -266.2239990234375,
                -150.5723876953125,
                3.768526077270508
            ],
            "type" : "VEC3"
        },
        {
            "bufferView" : 13,
            "componentType" : 5126,
            "count" : 589,
            "type" : "VEC3"
        },
        {
            "bufferView" : 14,
            "componentType" : 5126,
            "count" : 589,
            "type" : "VEC2"
        },
        {
            "bufferView" : 15,
            "componentType" : 5123,
            "count" : 990,
            "type" : "SCALAR"
        }
    ],
    "bufferViews" : [
        {
            "buffer" : 0,
            "byteLength" : 89568,
            "byteOffset" : 0
        },
        {
            "buffer" : 0,
            "byteLength" : 89568,
            "byteOffset" : 89568
        },
        {
            "buffer" : 0,
            "byteLength" : 59712,
            "byteOffset" : 179136
        },
        {
            "buffer" : 0,
            "byteLength" : 40050,
            "byteOffset" : 238848
        },
        {
            "buffer" : 0,
            "byteLength" : 9504,
            "byteOffset" : 278900
        },
        {
            "buffer" : 0,
            "byteLength" : 9504,
            "byteOffset" : 288404
        },
        {
            "buffer" : 0,
            "byteLength" : 6336,
            "byteOffset" : 297908
        },
        {
            "buffer" : 0,
            "byteLength" : 4176,
            "byteOffset" : 304244
        },
        {
            "buffer" : 0,
            "byteLength" : 52380,
            "byteOffset" : 308420
        },
        {
            "buffer" : 0,
            "byteLength" : 52380,
            "byteOffset" : 360800
        },
        {
            "buffer" : 0,
            "byteLength" : 34920,
            "byteOffset" : 413180
        },
        {
            "buffer" : 0,
            "byteLength" : 21108,
            "byteOffset" : 448100
        },
        {
            "buffer" : 0,
            "byteLength" : 7068,
            "byteOffset" : 469208
        },
        {
            "buffer" : 0,
            "byteLength" : 7068,
            "byteOffset" : 476276
        },
        {
            "buffer" : 0,
            "byteLength" : 4712,
            "byteOffset" : 483344
        },
        {
            "buffer" : 0,
            "byteLength" : 1980,
            "byteOffset" : 488056
        }
    ],
    "buffers" : [
        {
            "byteLength" : 490036,
            "uri" : "index.bin"
        }
    ]
}
