{
    "asset" : {
        "generator" : "Khronos glTF Blender I/O v1.6.16",
        "version" : "2.0"
    },
    "scene" : 0,
    "scenes" : [
        {
            "name" : "Scene",
            "nodes" : [
                0,
                1,
                2,
                3
            ]
        }
    ],
    "nodes" : [
        {
            "mesh" : 0,
            "name" : "YeLun",
            "rotation" : [
                0.7071068286895752,
                0,
                0,
                0.7071067094802856
            ],
            "scale" : [
                0.009999999776482582,
                0.009999999776482582,
                0.009999999776482582
            ]
        },
        {
            "mesh" : 1,
            "name" : "TouMing",
            "rotation" : [
                0.7071068286895752,
                0,
                0,
                0.7071067094802856
            ],
            "scale" : [
                0.009999999776482582,
                0.009999999776482582,
                0.009999999776482582
            ]
        },
        {
            "mesh" : 2,
            "name" : "FengShan",
            "rotation" : [
                0.7071068286895752,
                0,
                0,
                0.7071067094802856
            ],
            "scale" : [
                0.009999999776482582,
                0.009999999776482582,
                0.009999999776482582
            ]
        },
        {
            "mesh" : 3,
            "name" : "GongYeBeng",
            "rotation" : [
                0.7071068286895752,
                0,
                0,
                0.7071067094802856
            ],
            "scale" : [
                0.009999999776482582,
                0.009999999776482582,
                0.009999999776482582
            ]
        }
    ],
    "animations" : [
        {
            "channels" : [
                {
                    "sampler" : 0,
                    "target" : {
                        "node" : 0,
                        "path" : "translation"
                    }
                },
                {
                    "sampler" : 1,
                    "target" : {
                        "node" : 0,
                        "path" : "rotation"
                    }
                },
                {
                    "sampler" : 2,
                    "target" : {
                        "node" : 0,
                        "path" : "scale"
                    }
                }
            ],
            "name" : "YeLun",
            "samplers" : [
                {
                    "input" : 20,
                    "interpolation" : "LINEAR",
                    "output" : 21
                },
                {
                    "input" : 20,
                    "interpolation" : "LINEAR",
                    "output" : 22
                },
                {
                    "input" : 20,
                    "interpolation" : "LINEAR",
                    "output" : 23
                }
            ]
        },
        {
            "channels" : [
                {
                    "sampler" : 0,
                    "target" : {
                        "node" : 2,
                        "path" : "translation"
                    }
                },
                {
                    "sampler" : 1,
                    "target" : {
                        "node" : 2,
                        "path" : "rotation"
                    }
                },
                {
                    "sampler" : 2,
                    "target" : {
                        "node" : 2,
                        "path" : "scale"
                    }
                }
            ],
            "name" : "FengShan",
            "samplers" : [
                {
                    "input" : 20,
                    "interpolation" : "LINEAR",
                    "output" : 24
                },
                {
                    "input" : 20,
                    "interpolation" : "LINEAR",
                    "output" : 25
                },
                {
                    "input" : 20,
                    "interpolation" : "LINEAR",
                    "output" : 26
                }
            ]
        }
    ],
    "materials" : [
        {
            "doubleSided" : true,
            "name" : "hunshacheyelun_BaseColorAO_1Material",
            "normalTexture" : {
                "index" : 0,
                "scale" : 1.600000023841858
            },
            "pbrMetallicRoughness" : {
                "baseColorTexture" : {
                    "index" : 1
                },
                "metallicRoughnessTexture" : {
                    "index" : 2
                }
            }
        },
        {
            "alphaCutoff" : 0.5,
            "alphaMode" : "MASK",
            "doubleSided" : true,
            "name" : "BoLiZhao",
            "pbrMetallicRoughness" : {
                "baseColorFactor" : [
                    0.32839998602867126,
                    0.3866680860519409,
                    0.4000000059604645,
                    0.490641713142395
                ],
                "roughnessFactor" : 0.8964735269546509
            }
        },
        {
            "alphaCutoff" : 0.5,
            "alphaMode" : "MASK",
            "doubleSided" : true,
            "name" : "FengShan_Base_Color_1Material",
            "normalTexture" : {
                "index" : 3,
                "scale" : 1.600000023841858
            },
            "pbrMetallicRoughness" : {
                "baseColorTexture" : {
                    "index" : 4
                },
                "metallicRoughnessTexture" : {
                    "index" : 5
                }
            }
        },
        {
            "alphaCutoff" : 0.5,
            "alphaMode" : "MASK",
            "doubleSided" : true,
            "name" : "lambert2",
            "normalTexture" : {
                "index" : 6,
                "scale" : 1.600000023841858
            },
            "pbrMetallicRoughness" : {
                "baseColorTexture" : {
                    "index" : 7
                },
                "metallicRoughnessTexture" : {
                    "index" : 8
                }
            }
        }
    ],
    "meshes" : [
        {
            "name" : "\u7f51\u683c",
            "primitives" : [
                {
                    "attributes" : {
                        "POSITION" : 0,
                        "NORMAL" : 1,
                        "TEXCOORD_0" : 2
                    },
                    "indices" : 3,
                    "material" : 0
                }
            ]
        },
        {
            "name" : "\u7f51\u683c.001",
            "primitives" : [
                {
                    "attributes" : {
                        "POSITION" : 4,
                        "NORMAL" : 5,
                        "TEXCOORD_0" : 6
                    },
                    "indices" : 7,
                    "material" : 1
                }
            ]
        },
        {
            "name" : "\u7f51\u683c.002",
            "primitives" : [
                {
                    "attributes" : {
                        "POSITION" : 8,
                        "NORMAL" : 9,
                        "TEXCOORD_0" : 10
                    },
                    "indices" : 11,
                    "material" : 2
                }
            ]
        },
        {
            "name" : "\u7f51\u683c.003",
            "primitives" : [
                {
                    "attributes" : {
                        "POSITION" : 12,
                        "NORMAL" : 13,
                        "TEXCOORD_0" : 14
                    },
                    "indices" : 15,
                    "material" : 2
                },
                {
                    "attributes" : {
                        "POSITION" : 16,
                        "NORMAL" : 17,
                        "TEXCOORD_0" : 18
                    },
                    "indices" : 19,
                    "material" : 3
                }
            ]
        }
    ],
    "textures" : [
        {
            "sampler" : 0,
            "source" : 0
        },
        {
            "sampler" : 0,
            "source" : 1
        },
        {
            "sampler" : 0,
            "source" : 2
        },
        {
            "sampler" : 0,
            "source" : 3
        },
        {
            "sampler" : 0,
            "source" : 4
        },
        {
            "sampler" : 0,
            "source" : 5
        },
        {
            "sampler" : 0,
            "source" : 6
        },
        {
            "sampler" : 0,
            "source" : 7
        },
        {
            "sampler" : 0,
            "source" : 8
        }
    ],
    "images" : [
        {
            "mimeType" : "image/jpeg",
            "name" : "hunshacheyelun_Normal",
            "uri" : "textures/hunshacheyelun_Normal.jpg"
        },
        {
            "mimeType" : "image/jpeg",
            "name" : "hunshacheyelun_BaseColorAO",
            "uri" : "textures/hunshacheyelun_BaseColorAO.jpg"
        },
        {
            "mimeType" : "image/jpeg",
            "name" : "hunshacheyelun_Metallic-hunshacheyelun_Roughness",
            "uri" : "textures/hunshacheyelun_Metallic-hunshacheyelun_Roughness.jpg"
        },
        {
            "mimeType" : "image/jpeg",
            "name" : "FengShan_Normal",
            "uri" : "textures/FengShan_Normal.jpg"
        },
        {
            "mimeType" : "image/png",
            "name" : "FengShan_Base Color-FengShan_OP",
            "uri" : "textures/FengShan_Base%20Color-FengShan_OP.png"
        },
        {
            "mimeType" : "image/jpeg",
            "name" : "FengShan_Metallic-FengShan_Roughness",
            "uri" : "textures/FengShan_Metallic-FengShan_Roughness.jpg"
        },
        {
            "mimeType" : "image/jpeg",
            "name" : "gongyebeng_Normal",
            "uri" : "textures/gongyebeng_Normal.jpg"
        },
        {
            "mimeType" : "image/png",
            "name" : "gongyebeng_BaseColorAO-gongyebeng_O",
            "uri" : "textures/gongyebeng_BaseColorAO-gongyebeng_O.png"
        },
        {
            "mimeType" : "image/jpeg",
            "name" : "gongyebeng_Metallic-gongyebeng_Roughness",
            "uri" : "textures/gongyebeng_Metallic-gongyebeng_Roughness.jpg"
        }
    ],
    "accessors" : [
        {
            "bufferView" : 0,
            "componentType" : 5126,
            "count" : 679,
            "max" : [
                -101.8811264038086,
                4.521686553955078,
                -37.711997985839844
            ],
            "min" : [
                -258.03790283203125,
                -86.80294799804688,
                -128.4019775390625
            ],
            "type" : "VEC3"
        },
        {
            "bufferView" : 1,
            "componentType" : 5126,
            "count" : 679,
            "type" : "VEC3"
        },
        {
            "bufferView" : 2,
            "componentType" : 5126,
            "count" : 679,
            "type" : "VEC2"
        },
        {
            "bufferView" : 3,
            "componentType" : 5123,
            "count" : 1956,
            "type" : "SCALAR"
        },
        {
            "bufferView" : 4,
            "componentType" : 5126,
            "count" : 660,
            "max" : [
                -156.0910186767578,
                13.319000244140625,
                -28.281002044677734
            ],
            "min" : [
                -200.30799865722656,
                -96.23399353027344,
                -137.83399963378906
            ],
            "type" : "VEC3"
        },
        {
            "bufferView" : 5,
            "componentType" : 5126,
            "count" : 660,
            "type" : "VEC3"
        },
        {
            "bufferView" : 6,
            "componentType" : 5126,
            "count" : 660,
            "type" : "VEC2"
        },
        {
            "bufferView" : 7,
            "componentType" : 5123,
            "count" : 1872,
            "type" : "SCALAR"
        },
        {
            "bufferView" : 8,
            "componentType" : 5126,
            "count" : 764,
            "max" : [
                363.0096435546875,
                22.671539306640625,
                -86.024658203125
            ],
            "min" : [
                334.5731201171875,
                -134.5585174560547,
                -243.25479125976562
            ],
            "type" : "VEC3"
        },
        {
            "bufferView" : 9,
            "componentType" : 5126,
            "count" : 764,
            "type" : "VEC3"
        },
        {
            "bufferView" : 10,
            "componentType" : 5126,
            "count" : 764,
            "type" : "VEC2"
        },
        {
            "bufferView" : 11,
            "componentType" : 5123,
            "count" : 2652,
            "type" : "SCALAR"
        },
        {
            "bufferView" : 12,
            "componentType" : 5126,
            "count" : 113,
            "max" : [
                356.0542297363281,
                27.951004028320312,
                -30.964996337890625
            ],
            "min" : [
                315.70703125,
                -139.83799743652344,
                -249.39102172851562
            ],
            "type" : "VEC3"
        },
        {
            "bufferView" : 13,
            "componentType" : 5126,
            "count" : 113,
            "type" : "VEC3"
        },
        {
            "bufferView" : 14,
            "componentType" : 5126,
            "count" : 113,
            "type" : "VEC2"
        },
        {
            "bufferView" : 15,
            "componentType" : 5123,
            "count" : 282,
            "type" : "SCALAR"
        },
        {
            "bufferView" : 16,
            "componentType" : 5126,
            "count" : 47440,
            "max" : [
                486.8130187988281,
                200.74400329589844,
                9.5367431640625e-06
            ],
            "min" : [
                -486.8130187988281,
                -200.74400329589844,
                -413.6099853515625
            ],
            "type" : "VEC3"
        },
        {
            "bufferView" : 17,
            "componentType" : 5126,
            "count" : 47440,
            "type" : "VEC3"
        },
        {
            "bufferView" : 18,
            "componentType" : 5126,
            "count" : 47440,
            "type" : "VEC2"
        },
        {
            "bufferView" : 19,
            "componentType" : 5123,
            "count" : 101592,
            "type" : "SCALAR"
        },
        {
            "bufferView" : 20,
            "componentType" : 5126,
            "count" : 31,
            "max" : [
                1.0333333333333334
            ],
            "min" : [
                0.03333333333333333
            ],
            "type" : "SCALAR"
        },
        {
            "bufferView" : 21,
            "componentType" : 5126,
            "count" : 31,
            "type" : "VEC3"
        },
        {
            "bufferView" : 22,
            "componentType" : 5126,
            "count" : 31,
            "type" : "VEC4"
        },
        {
            "bufferView" : 23,
            "componentType" : 5126,
            "count" : 31,
            "type" : "VEC3"
        },
        {
            "bufferView" : 24,
            "componentType" : 5126,
            "count" : 31,
            "type" : "VEC3"
        },
        {
            "bufferView" : 25,
            "componentType" : 5126,
            "count" : 31,
            "type" : "VEC4"
        },
        {
            "bufferView" : 26,
            "componentType" : 5126,
            "count" : 31,
            "type" : "VEC3"
        }
    ],
    "bufferViews" : [
        {
            "buffer" : 0,
            "byteLength" : 8148,
            "byteOffset" : 0
        },
        {
            "buffer" : 0,
            "byteLength" : 8148,
            "byteOffset" : 8148
        },
        {
            "buffer" : 0,
            "byteLength" : 5432,
            "byteOffset" : 16296
        },
        {
            "buffer" : 0,
            "byteLength" : 3912,
            "byteOffset" : 21728
        },
        {
            "buffer" : 0,
            "byteLength" : 7920,
            "byteOffset" : 25640
        },
        {
            "buffer" : 0,
            "byteLength" : 7920,
            "byteOffset" : 33560
        },
        {
            "buffer" : 0,
            "byteLength" : 5280,
            "byteOffset" : 41480
        },
        {
            "buffer" : 0,
            "byteLength" : 3744,
            "byteOffset" : 46760
        },
        {
            "buffer" : 0,
            "byteLength" : 9168,
            "byteOffset" : 50504
        },
        {
            "buffer" : 0,
            "byteLength" : 9168,
            "byteOffset" : 59672
        },
        {
            "buffer" : 0,
            "byteLength" : 6112,
            "byteOffset" : 68840
        },
        {
            "buffer" : 0,
            "byteLength" : 5304,
            "byteOffset" : 74952
        },
        {
            "buffer" : 0,
            "byteLength" : 1356,
            "byteOffset" : 80256
        },
        {
            "buffer" : 0,
            "byteLength" : 1356,
            "byteOffset" : 81612
        },
        {
            "buffer" : 0,
            "byteLength" : 904,
            "byteOffset" : 82968
        },
        {
            "buffer" : 0,
            "byteLength" : 564,
            "byteOffset" : 83872
        },
        {
            "buffer" : 0,
            "byteLength" : 569280,
            "byteOffset" : 84436
        },
        {
            "buffer" : 0,
            "byteLength" : 569280,
            "byteOffset" : 653716
        },
        {
            "buffer" : 0,
            "byteLength" : 379520,
            "byteOffset" : 1222996
        },
        {
            "buffer" : 0,
            "byteLength" : 203184,
            "byteOffset" : 1602516
        },
        {
            "buffer" : 0,
            "byteLength" : 124,
            "byteOffset" : 1805700
        },
        {
            "buffer" : 0,
            "byteLength" : 372,
            "byteOffset" : 1805824
        },
        {
            "buffer" : 0,
            "byteLength" : 496,
            "byteOffset" : 1806196
        },
        {
            "buffer" : 0,
            "byteLength" : 372,
            "byteOffset" : 1806692
        },
        {
            "buffer" : 0,
            "byteLength" : 372,
            "byteOffset" : 1807064
        },
        {
            "buffer" : 0,
            "byteLength" : 496,
            "byteOffset" : 1807436
        },
        {
            "buffer" : 0,
            "byteLength" : 372,
            "byteOffset" : 1807932
        }
    ],
    "samplers" : [
        {
            "magFilter" : 9729,
            "minFilter" : 9987
        }
    ],
    "buffers" : [
        {
            "byteLength" : 1808304,
            "uri" : "index.bin"
        }
    ]
}
