{
    "asset" : {
        "generator" : "Khronos glTF Blender I/O v1.6.16",
        "version" : "2.0"
    },
    "scene" : 0,
    "scenes" : [
        {
            "name" : "Scene",
            "nodes" : [
                0
            ]
        }
    ],
    "nodes" : [
        {
            "mesh" : 0,
            "name" : "GongYeLiuChengGuanHui",
            "rotation" : [
                0.7071068286895752,
                0,
                0,
                0.7071067094802856
            ],
            "scale" : [
                0.009999999776482582,
                0.009999999776482582,
                0.009999999776482582
            ]
        }
    ],
    "materials" : [
        {
            "doubleSided" : true,
            "name" : "GongYeLiuChengGuanHui_M",
            "normalTexture" : {
                "index" : 0
            },
            "pbrMetallicRoughness" : {
                "baseColorTexture" : {
                    "index" : 1
                },
                "metallicFactor" : 0,
                "metallicRoughnessTexture" : {
                    "index" : 2
                }
            }
        }
    ],
    "meshes" : [
        {
            "name" : "\u7f51\u683c",
            "primitives" : [
                {
                    "attributes" : {
                        "POSITION" : 0,
                        "NORMAL" : 1,
                        "TEXCOORD_0" : 2
                    },
                    "indices" : 3,
                    "material" : 0
                }
            ]
        }
    ],
    "textures" : [
        {
            "sampler" : 0,
            "source" : 0
        },
        {
            "sampler" : 0,
            "source" : 1
        },
        {
            "sampler" : 0,
            "source" : 2
        }
    ],
    "images" : [
        {
            "mimeType" : "image/jpeg",
            "name" : "GongYeLiuChengGuanHui_Normal",
            "uri" : "textures/GongYeLiuChengGuanHui_Normal.jpg"
        },
        {
            "mimeType" : "image/jpeg",
            "name" : "GongYeLiuChengGuanHui_BaseColorAO",
            "uri" : "textures/GongYeLiuChengGuanHui_BaseColorAO.jpg"
        },
        {
            "mimeType" : "image/jpeg",
            "name" : "GongYeLiuChengGuanHui_Roughness",
            "uri" : "textures/GongYeLiuChengGuanHui_Roughness.jpg"
        }
    ],
    "accessors" : [
        {
            "bufferView" : 0,
            "componentType" : 5126,
            "count" : 27536,
            "max" : [
                147.1196746826172,
                48.97282791137695,
                0
            ],
            "min" : [
                -147.1196746826172,
                -72.47102355957031,
                -65.03022766113281
            ],
            "type" : "VEC3"
        },
        {
            "bufferView" : 1,
            "componentType" : 5126,
            "count" : 27536,
            "type" : "VEC3"
        },
        {
            "bufferView" : 2,
            "componentType" : 5126,
            "count" : 27536,
            "type" : "VEC2"
        },
        {
            "bufferView" : 3,
            "componentType" : 5123,
            "count" : 71082,
            "type" : "SCALAR"
        }
    ],
    "bufferViews" : [
        {
            "buffer" : 0,
            "byteLength" : 330432,
            "byteOffset" : 0
        },
        {
            "buffer" : 0,
            "byteLength" : 330432,
            "byteOffset" : 330432
        },
        {
            "buffer" : 0,
            "byteLength" : 220288,
            "byteOffset" : 660864
        },
        {
            "buffer" : 0,
            "byteLength" : 142164,
            "byteOffset" : 881152
        }
    ],
    "samplers" : [
        {
            "magFilter" : 9729,
            "minFilter" : 9987
        }
    ],
    "buffers" : [
        {
            "byteLength" : 1023316,
            "uri" : "index.bin"
        }
    ]
}
