{
    "asset" : {
        "generator" : "Khronos glTF Blender I/O v1.6.16",
        "version" : "2.0"
    },
    "scene" : 0,
    "scenes" : [
        {
            "name" : "Scene",
            "nodes" : [
                0
            ]
        }
    ],
    "nodes" : [
        {
            "mesh" : 0,
            "name" : "xiaofangpao",
            "scale" : [
                0.009999999776482582,
                0.009999999776482582,
                0.009999999776482582
            ]
        }
    ],
    "materials" : [
        {
            "doubleSided" : true,
            "name" : "xiaofangpao",
            "normalTexture" : {
                "index" : 0
            },
            "pbrMetallicRoughness" : {
                "baseColorTexture" : {
                    "index" : 1
                },
                "metallicRoughnessTexture" : {
                    "index" : 2
                }
            }
        }
    ],
    "meshes" : [
        {
            "name" : "\u7f51\u683c",
            "primitives" : [
                {
                    "attributes" : {
                        "POSITION" : 0,
                        "NORMAL" : 1,
                        "TEXCOORD_0" : 2
                    },
                    "indices" : 3,
                    "material" : 0
                }
            ]
        }
    ],
    "textures" : [
        {
            "sampler" : 0,
            "source" : 0
        },
        {
            "sampler" : 0,
            "source" : 1
        },
        {
            "sampler" : 0,
            "source" : 2
        }
    ],
    "images" : [
        {
            "mimeType" : "image/jpeg",
            "name" : "xiaofangpao_Normal",
            "uri" : "textures/xiaofangpao_Normal.jpg"
        },
        {
            "mimeType" : "image/jpeg",
            "name" : "xiaofangpao_BaseColorAO",
            "uri" : "textures/xiaofangpao_BaseColorAO.jpg"
        },
        {
            "mimeType" : "image/jpeg",
            "name" : "xiaofangpao_Metallic-xiaofangpao_Roughness",
            "uri" : "textures/xiaofangpao_Metallic-xiaofangpao_Roughness.jpg"
        }
    ],
    "accessors" : [
        {
            "bufferView" : 0,
            "componentType" : 5126,
            "count" : 13407,
            "max" : [
                235.03631591796875,
                746.2708129882812,
                235.03631591796875
            ],
            "min" : [
                -235.03631591796875,
                2.18939208984375,
                -235.03631591796875
            ],
            "type" : "VEC3"
        },
        {
            "bufferView" : 1,
            "componentType" : 5126,
            "count" : 13407,
            "type" : "VEC3"
        },
        {
            "bufferView" : 2,
            "componentType" : 5126,
            "count" : 13407,
            "type" : "VEC2"
        },
        {
            "bufferView" : 3,
            "componentType" : 5123,
            "count" : 30228,
            "type" : "SCALAR"
        }
    ],
    "bufferViews" : [
        {
            "buffer" : 0,
            "byteLength" : 160884,
            "byteOffset" : 0
        },
        {
            "buffer" : 0,
            "byteLength" : 160884,
            "byteOffset" : 160884
        },
        {
            "buffer" : 0,
            "byteLength" : 107256,
            "byteOffset" : 321768
        },
        {
            "buffer" : 0,
            "byteLength" : 60456,
            "byteOffset" : 429024
        }
    ],
    "samplers" : [
        {
            "magFilter" : 9729,
            "minFilter" : 9987
        }
    ],
    "buffers" : [
        {
            "byteLength" : 489480,
            "uri" : "index.bin"
        }
    ]
}
