{
    "asset" : {
        "generator" : "Khronos glTF Blender I/O v1.8.19",
        "version" : "2.0"
    },
    "scene" : 0,
    "scenes" : [
        {
            "name" : "Scene",
            "nodes" : [
                0
            ]
        }
    ],
    "nodes" : [
        {
            "mesh" : 0,
            "name" : "\u529e\u516c\u697c03"
        }
    ],
    "materials" : [
        {
            "doubleSided" : true,
            "name" : "Mat3d66-1003769-11-3500",
            "pbrMetallicRoughness" : {
                "metallicFactor" : 0,
                "roughnessFactor" : 0.8149605989456177
            }
        },
        {
            "doubleSided" : true,
            "name" : "Mat3d66-1003769-12-4579",
            "pbrMetallicRoughness" : {
                "baseColorFactor" : [
                    0.564706027507782,
                    0.7372549772262573,
                    0.8352940082550049,
                    1
                ],
                "metallicFactor" : 0,
                "roughnessFactor" : 0.7283464670181274
            }
        },
        {
            "doubleSided" : true,
            "name" : "Mat3d66-1003769-13-3644",
            "pbrMetallicRoughness" : {
                "baseColorTexture" : {
                    "index" : 0
                },
                "metallicFactor" : 0,
                "roughnessFactor" : 0.9566929340362549
            }
        },
        {
            "doubleSided" : true,
            "name" : "Mat3d66-1003769-14-141",
            "pbrMetallicRoughness" : {
                "baseColorTexture" : {
                    "index" : 1
                },
                "metallicFactor" : 0,
                "roughnessFactor" : 0.5
            }
        },
        {
            "doubleSided" : true,
            "name" : "Mat3d66-1003769-15-3670",
            "pbrMetallicRoughness" : {
                "baseColorFactor" : [
                    0.2509799897670746,
                    0.2980389893054962,
                    0.34902000427246094,
                    1
                ],
                "metallicFactor" : 0,
                "roughnessFactor" : 0.5
            }
        },
        {
            "doubleSided" : true,
            "name" : "Mat3d66-1003769-16-6152",
            "pbrMetallicRoughness" : {
                "baseColorTexture" : {
                    "index" : 2
                },
                "metallicFactor" : 0,
                "roughnessFactor" : 0.5
            }
        },
        {
            "doubleSided" : true,
            "name" : "Mat3d66-1003769-17-2503",
            "pbrMetallicRoughness" : {
                "baseColorFactor" : [
                    0.5882350206375122,
                    0.5882350206375122,
                    0.5882350206375122,
                    1
                ],
                "metallicFactor" : 0,
                "roughnessFactor" : 0.5
            }
        }
    ],
    "meshes" : [
        {
            "name" : "Obj3d66-1003769-10-299",
            "primitives" : [
                {
                    "attributes" : {
                        "POSITION" : 0,
                        "NORMAL" : 1,
                        "TEXCOORD_0" : 2
                    },
                    "indices" : 3,
                    "material" : 0
                },
                {
                    "attributes" : {
                        "POSITION" : 4,
                        "NORMAL" : 5,
                        "TEXCOORD_0" : 6
                    },
                    "indices" : 7,
                    "material" : 1
                },
                {
                    "attributes" : {
                        "POSITION" : 8,
                        "NORMAL" : 9,
                        "TEXCOORD_0" : 10
                    },
                    "indices" : 11,
                    "material" : 2
                },
                {
                    "attributes" : {
                        "POSITION" : 12,
                        "NORMAL" : 13,
                        "TEXCOORD_0" : 14
                    },
                    "indices" : 15,
                    "material" : 3
                },
                {
                    "attributes" : {
                        "POSITION" : 16,
                        "NORMAL" : 17,
                        "TEXCOORD_0" : 18
                    },
                    "indices" : 19,
                    "material" : 4
                },
                {
                    "attributes" : {
                        "POSITION" : 20,
                        "NORMAL" : 21,
                        "TEXCOORD_0" : 22
                    },
                    "indices" : 23,
                    "material" : 5
                },
                {
                    "attributes" : {
                        "POSITION" : 24,
                        "NORMAL" : 25,
                        "TEXCOORD_0" : 26
                    },
                    "indices" : 27,
                    "material" : 6
                }
            ]
        }
    ],
    "textures" : [
        {
            "sampler" : 0,
            "source" : 0
        },
        {
            "sampler" : 0,
            "source" : 1
        },
        {
            "sampler" : 0,
            "source" : 2
        }
    ],
    "images" : [
        {
            "bufferView" : 12,
            "mimeType" : "image/jpeg",
            "name" : "Image_0"
        },
        {
            "bufferView" : 17,
            "mimeType" : "image/jpeg",
            "name" : "Image_1"
        },
        {
            "bufferView" : 26,
            "mimeType" : "image/jpeg",
            "name" : "Image_2"
        }
    ],
    "accessors" : [
        {
            "bufferView" : 0,
            "componentType" : 5126,
            "count" : 972,
            "max" : [
                10.100488662719727,
                8.400008201599121,
                6.819417953491211
            ],
            "min" : [
                -15.499523162841797,
                2.384185791015625e-07,
                -7.780594348907471
            ],
            "type" : "VEC3"
        },
        {
            "bufferView" : 1,
            "componentType" : 5126,
            "count" : 972,
            "type" : "VEC3"
        },
        {
            "bufferView" : 2,
            "componentType" : 5126,
            "count" : 972,
            "type" : "VEC2"
        },
        {
            "bufferView" : 3,
            "componentType" : 5123,
            "count" : 1104,
            "type" : "SCALAR"
        },
        {
            "bufferView" : 4,
            "componentType" : 5126,
            "count" : 128,
            "max" : [
                15.940485000610352,
                7.150004863739014,
                8.879417419433594
            ],
            "min" : [
                -14.54949951171875,
                0.45000243186950684,
                -7.325541019439697
            ],
            "type" : "VEC3"
        },
        {
            "bufferView" : 5,
            "componentType" : 5126,
            "count" : 128,
            "type" : "VEC3"
        },
        {
            "bufferView" : 6,
            "componentType" : 5126,
            "count" : 128,
            "type" : "VEC2"
        },
        {
            "bufferView" : 7,
            "componentType" : 5123,
            "count" : 144,
            "type" : "SCALAR"
        },
        {
            "bufferView" : 8,
            "componentType" : 5126,
            "count" : 562,
            "max" : [
                16.100465774536133,
                5.550007343292236,
                9.039414405822754
            ],
            "min" : [
                1.9504724740982056,
                9.5367431640625e-07,
                -7.775549411773682
            ],
            "type" : "VEC3"
        },
        {
            "bufferView" : 9,
            "componentType" : 5126,
            "count" : 562,
            "type" : "VEC3"
        },
        {
            "bufferView" : 10,
            "componentType" : 5126,
            "count" : 562,
            "type" : "VEC2"
        },
        {
            "bufferView" : 11,
            "componentType" : 5123,
            "count" : 660,
            "type" : "SCALAR"
        },
        {
            "bufferView" : 13,
            "componentType" : 5126,
            "count" : 180,
            "max" : [
                17.345224380493164,
                0.45000410079956055,
                9.39941120147705
            ],
            "min" : [
                2.19048810005188,
                9.5367431640625e-07,
                -7.430750370025635
            ],
            "type" : "VEC3"
        },
        {
            "bufferView" : 14,
            "componentType" : 5126,
            "count" : 180,
            "type" : "VEC3"
        },
        {
            "bufferView" : 15,
            "componentType" : 5126,
            "count" : 180,
            "type" : "VEC2"
        },
        {
            "bufferView" : 16,
            "componentType" : 5123,
            "count" : 192,
            "type" : "SCALAR"
        },
        {
            "bufferView" : 18,
            "componentType" : 5126,
            "count" : 3502,
            "max" : [
                15.980493545532227,
                7.0500102043151855,
                8.919425010681152
            ],
            "min" : [
                -14.549501419067383,
                0.45000457763671875,
                -7.32553243637085
            ],
            "type" : "VEC3"
        },
        {
            "bufferView" : 19,
            "componentType" : 5126,
            "count" : 3502,
            "type" : "VEC3"
        },
        {
            "bufferView" : 20,
            "componentType" : 5126,
            "count" : 3502,
            "type" : "VEC2"
        },
        {
            "bufferView" : 21,
            "componentType" : 5123,
            "count" : 4080,
            "type" : "SCALAR"
        },
        {
            "bufferView" : 22,
            "componentType" : 5126,
            "count" : 148,
            "max" : [
                15.860485076904297,
                7.6396074295043945,
                8.799415588378906
            ],
            "min" : [
                -15.259527206420898,
                1.6689300537109375e-06,
                -7.540611743927002
            ],
            "type" : "VEC3"
        },
        {
            "bufferView" : 23,
            "componentType" : 5126,
            "count" : 148,
            "type" : "VEC3"
        },
        {
            "bufferView" : 24,
            "componentType" : 5126,
            "count" : 148,
            "type" : "VEC2"
        },
        {
            "bufferView" : 25,
            "componentType" : 5123,
            "count" : 156,
            "type" : "SCALAR"
        },
        {
            "bufferView" : 27,
            "componentType" : 5126,
            "count" : 1224,
            "max" : [
                17.445222854614258,
                8.550005912780762,
                9.08941650390625
            ],
            "min" : [
                -15.599519729614258,
                1.1920928955078125e-06,
                -7.880621433258057
            ],
            "type" : "VEC3"
        },
        {
            "bufferView" : 28,
            "componentType" : 5126,
            "count" : 1224,
            "type" : "VEC3"
        },
        {
            "bufferView" : 29,
            "componentType" : 5126,
            "count" : 1224,
            "type" : "VEC2"
        },
        {
            "bufferView" : 30,
            "componentType" : 5123,
            "count" : 1356,
            "type" : "SCALAR"
        }
    ],
    "bufferViews" : [
        {
            "buffer" : 0,
            "byteLength" : 11664,
            "byteOffset" : 0
        },
        {
            "buffer" : 0,
            "byteLength" : 11664,
            "byteOffset" : 11664
        },
        {
            "buffer" : 0,
            "byteLength" : 7776,
            "byteOffset" : 23328
        },
        {
            "buffer" : 0,
            "byteLength" : 2208,
            "byteOffset" : 31104
        },
        {
            "buffer" : 0,
            "byteLength" : 1536,
            "byteOffset" : 33312
        },
        {
            "buffer" : 0,
            "byteLength" : 1536,
            "byteOffset" : 34848
        },
        {
            "buffer" : 0,
            "byteLength" : 1024,
            "byteOffset" : 36384
        },
        {
            "buffer" : 0,
            "byteLength" : 288,
            "byteOffset" : 37408
        },
        {
            "buffer" : 0,
            "byteLength" : 6744,
            "byteOffset" : 37696
        },
        {
            "buffer" : 0,
            "byteLength" : 6744,
            "byteOffset" : 44440
        },
        {
            "buffer" : 0,
            "byteLength" : 4496,
            "byteOffset" : 51184
        },
        {
            "buffer" : 0,
            "byteLength" : 1320,
            "byteOffset" : 55680
        },
        {
            "buffer" : 0,
            "byteLength" : 503288,
            "byteOffset" : 57000
        },
        {
            "buffer" : 0,
            "byteLength" : 2160,
            "byteOffset" : 560288
        },
        {
            "buffer" : 0,
            "byteLength" : 2160,
            "byteOffset" : 562448
        },
        {
            "buffer" : 0,
            "byteLength" : 1440,
            "byteOffset" : 564608
        },
        {
            "buffer" : 0,
            "byteLength" : 384,
            "byteOffset" : 566048
        },
        {
            "buffer" : 0,
            "byteLength" : 132586,
            "byteOffset" : 566432
        },
        {
            "buffer" : 0,
            "byteLength" : 42024,
            "byteOffset" : 699020
        },
        {
            "buffer" : 0,
            "byteLength" : 42024,
            "byteOffset" : 741044
        },
        {
            "buffer" : 0,
            "byteLength" : 28016,
            "byteOffset" : 783068
        },
        {
            "buffer" : 0,
            "byteLength" : 8160,
            "byteOffset" : 811084
        },
        {
            "buffer" : 0,
            "byteLength" : 1776,
            "byteOffset" : 819244
        },
        {
            "buffer" : 0,
            "byteLength" : 1776,
            "byteOffset" : 821020
        },
        {
            "buffer" : 0,
            "byteLength" : 1184,
            "byteOffset" : 822796
        },
        {
            "buffer" : 0,
            "byteLength" : 312,
            "byteOffset" : 823980
        },
        {
            "buffer" : 0,
            "byteLength" : 37172,
            "byteOffset" : 824292
        },
        {
            "buffer" : 0,
            "byteLength" : 14688,
            "byteOffset" : 861464
        },
        {
            "buffer" : 0,
            "byteLength" : 14688,
            "byteOffset" : 876152
        },
        {
            "buffer" : 0,
            "byteLength" : 9792,
            "byteOffset" : 890840
        },
        {
            "buffer" : 0,
            "byteLength" : 2712,
            "byteOffset" : 900632
        }
    ],
    "samplers" : [
        {
            "magFilter" : 9729,
            "minFilter" : 9987
        }
    ],
    "buffers" : [
        {
            "byteLength" : 903344,
            "uri" : "data:application/octet-stream;base64,"
        }
    ]
}
